<svg width="81" height="76" viewBox="0 0 81 76" fill="none" xmlns="http://www.w3.org/2000/svg">
<path d="M7.86568 17.9015L35.1819 5.97099C35.6327 5.77726 36.1175 5.67599 36.6079 5.67314C37.0983 5.67029 37.5843 5.76592 38.0373 5.9544C38.4902 6.14287 38.901 6.42038 39.2453 6.77055C39.5896 7.12073 39.8605 7.53648 40.042 7.99331L58.8856 53.6662C59.2772 54.5923 59.2906 55.6356 58.9227 56.5715C58.5548 57.5075 57.8351 58.2611 56.9186 58.6701L29.6062 70.6006C29.1552 70.795 28.67 70.8967 28.1792 70.8999C27.6883 70.903 27.2019 70.8075 26.7485 70.619C26.2951 70.4305 25.8839 70.1528 25.5393 69.8023C25.1948 69.4518 24.9237 69.0356 24.7422 68.5783L5.89867 22.9016C5.507 21.9755 5.49368 20.9322 5.86157 19.9962C6.22947 19.0603 6.94915 18.3106 7.86568 17.9015ZM51.4767 5.6333H55.3036C56.3186 5.6333 57.2919 6.0376 58.0096 6.75725C58.7273 7.47691 59.1305 8.45297 59.1305 9.47071V22.9016M70.6111 13.3081C71.6214 13.7379 72.6011 14.1408 73.5501 14.5169C74.4843 14.9144 75.2228 15.6677 75.6032 16.6112C75.9835 17.5546 75.9746 18.6109 75.5784 19.5477L66.7842 40.17" fill="#3D5A80"/>
<path d="M51.4767 5.6333H55.3036C56.3186 5.6333 57.2919 6.0376 58.0096 6.75725C58.7273 7.47691 59.1305 8.45297 59.1305 9.47071V22.9016M70.6111 13.3081C71.6214 13.7379 72.6011 14.1408 73.5501 14.5169C74.4843 14.9144 75.2228 15.6677 75.6032 16.6112C75.9835 17.5546 75.9746 18.6109 75.5784 19.5477L66.7842 40.17M7.86568 17.9015L35.1819 5.97099C35.6327 5.77726 36.1175 5.67599 36.6079 5.67314C37.0983 5.67029 37.5843 5.76592 38.0373 5.9544C38.4902 6.14287 38.901 6.42038 39.2453 6.77055C39.5896 7.12073 39.8605 7.53648 40.042 7.99331L58.8856 53.6662C59.2772 54.5923 59.2906 55.6356 58.9227 56.5715C58.5548 57.5075 57.8351 58.2611 56.9186 58.6701L29.6062 70.6006C29.1552 70.795 28.67 70.8967 28.1792 70.8999C27.6883 70.903 27.2019 70.8075 26.7485 70.619C26.2951 70.4305 25.8839 70.1528 25.5393 69.8023C25.1948 69.4518 24.9237 69.0356 24.7422 68.5783L5.89867 22.9016C5.507 21.9755 5.49368 20.9322 5.86157 19.9962C6.22947 19.0603 6.94915 18.3106 7.86568 17.9015Z" stroke="#3D5A80" stroke-width="9.84053" stroke-linecap="round" stroke-linejoin="round"/>
</svg>
