<svg width="81" height="76" viewBox="0 0 81 76" fill="none" xmlns="http://www.w3.org/2000/svg">
<path d="M40.482 75.9205C39.2418 75.9189 38.0308 75.5383 37.0064 74.8281C21.8318 64.3655 15.261 57.1916 11.6368 52.7065C3.91335 43.146 0.215749 33.3305 0.320015 22.7011C0.44166 10.5205 10.0632 0.612793 21.768 0.612793C30.2793 0.612793 36.1742 5.4823 39.6073 9.53793C39.716 9.66511 39.8504 9.76709 40.0013 9.83698C40.1522 9.90687 40.3161 9.94303 40.482 9.94303C40.6478 9.94303 40.8117 9.90687 40.9626 9.83698C41.1135 9.76709 41.2479 9.66511 41.3567 9.53793C44.7897 5.47838 50.6847 0.612793 59.1959 0.612793C70.9008 0.612793 80.5223 10.5205 80.6439 22.703C80.7482 33.3344 77.0467 43.1499 69.3272 52.7085C65.7029 57.1936 59.1322 64.3674 43.9575 74.8301C42.933 75.5395 41.722 75.9195 40.482 75.9205Z" fill="#98C1D9"/>
</svg>
