<svg width="81" height="76" viewBox="0 0 81 76" fill="none" xmlns="http://www.w3.org/2000/svg">
<path d="M7.27071 17.2682L34.5869 5.33769C35.0377 5.14396 35.5226 5.04269 36.0129 5.03984C36.5033 5.03699 36.9894 5.13262 37.4423 5.3211C37.8953 5.50957 38.306 5.78708 38.6503 6.13725C38.9946 6.48743 39.2655 6.90318 39.4471 7.36001L58.2906 53.0329C58.6823 53.959 58.6956 55.0023 58.3277 55.9382C57.9598 56.8742 57.2401 57.6278 56.3236 58.0368L29.0112 69.9673C28.5602 70.1617 28.075 70.2634 27.5842 70.2666C27.0934 70.2697 26.6069 70.1742 26.1535 69.9857C25.7001 69.7972 25.289 69.5195 24.9444 69.169C24.5998 68.8185 24.3287 68.4023 24.1472 67.945L5.3037 22.2683C4.91203 21.3422 4.89871 20.2989 5.2666 19.3629C5.63449 18.427 6.35418 17.6773 7.27071 17.2682ZM50.8818 5H54.7086C55.7236 5 56.697 5.4043 57.4147 6.12395C58.1323 6.84361 58.5355 7.81966 58.5355 8.83741V22.2683M70.0161 12.6748C71.0264 13.1046 72.0061 13.5075 72.9552 13.8836C73.8894 14.2811 74.6279 15.0344 75.0082 15.9779C75.3886 16.9213 75.3797 17.9776 74.9834 18.9144L66.1893 39.5367" fill="#98C1D9"/>
<path d="M50.8818 5H54.7086C55.7236 5 56.697 5.4043 57.4147 6.12395C58.1323 6.84361 58.5355 7.81966 58.5355 8.83741V22.2683M70.0161 12.6748C71.0264 13.1046 72.0061 13.5075 72.9552 13.8836C73.8894 14.2811 74.6279 15.0344 75.0082 15.9779C75.3886 16.9213 75.3797 17.9776 74.9834 18.9144L66.1893 39.5367M7.27071 17.2682L34.5869 5.33769C35.0377 5.14396 35.5226 5.04269 36.0129 5.03984C36.5033 5.03699 36.9894 5.13262 37.4423 5.3211C37.8953 5.50957 38.306 5.78708 38.6503 6.13725C38.9946 6.48743 39.2655 6.90318 39.4471 7.36001L58.2906 53.0329C58.6823 53.959 58.6956 55.0023 58.3277 55.9382C57.9598 56.8742 57.2401 57.6278 56.3236 58.0368L29.0112 69.9673C28.5602 70.1617 28.075 70.2634 27.5842 70.2666C27.0934 70.2697 26.6069 70.1742 26.1535 69.9857C25.7001 69.7972 25.289 69.5195 24.9444 69.169C24.5998 68.8185 24.3287 68.4023 24.1472 67.945L5.3037 22.2683C4.91203 21.3422 4.89871 20.2989 5.2666 19.3629C5.63449 18.427 6.35418 17.6773 7.27071 17.2682Z" stroke="#98C1D9" stroke-width="9.84053" stroke-linecap="round" stroke-linejoin="round"/>
</svg>
