<svg width="134" height="134" viewBox="0 0 134 134" fill="none" xmlns="http://www.w3.org/2000/svg">
<path d="M38.8243 84.157L38.8216 84.1537C31.8054 75.6044 28.2084 66.4852 28.3117 56.4527L38.8243 84.157ZM38.8243 84.157C42.1491 88.2013 47.9546 94.378 60.8886 103.159C62.5694 104.307 64.5574 104.921 66.5928 104.921C68.628 104.921 70.6157 104.307 72.2963 103.16M38.8243 84.157L72.2963 103.16M72.2963 103.16C85.2268 94.3809 91.0355 88.2131 94.3648 84.1528C101.377 75.6046 104.979 66.484 104.868 56.4472C104.739 43.8783 94.6467 33.467 82.0879 33.467C75.2943 33.467 70.141 36.3419 66.5902 39.3985C63.0389 36.3408 57.8837 33.467 51.0913 33.467C38.5313 33.467 28.4381 43.8803 28.3117 56.4509L72.2963 103.16ZM5.09473 66.6346C5.09473 32.7276 32.689 5.13331 66.596 5.13331C100.503 5.13331 128.097 32.7276 128.097 66.6346C128.097 100.542 100.503 128.136 66.596 128.136C32.689 128.136 5.09473 100.542 5.09473 66.6346Z" fill="#DD2E44" stroke="#DD2E44" stroke-width="10.041"/>
</svg>
