<svg width="76" height="63" viewBox="0 0 76 63" fill="none" xmlns="http://www.w3.org/2000/svg">
<path d="M12.5591 0.123047C9.23029 0.123047 6.03782 1.44541 3.684 3.79923C1.33018 6.15305 0.0078125 9.34552 0.0078125 12.6743V13.9357L37.6617 34.2123L75.3155 13.942V12.6743C75.3155 9.34552 73.9931 6.15305 71.6393 3.79923C69.2855 1.44541 66.093 0.123047 62.7642 0.123047H12.5591ZM75.3155 21.0649L39.149 40.5382C38.6919 40.7843 38.1808 40.9131 37.6617 40.9131C37.1425 40.9131 36.6315 40.7843 36.1743 40.5382L0.0078125 21.0649V50.3282C0.0078125 53.657 1.33018 56.8495 3.684 59.2033C6.03782 61.5571 9.23029 62.8795 12.5591 62.8795H62.7642C66.093 62.8795 69.2855 61.5571 71.6393 59.2033C73.9931 56.8495 75.3155 53.657 75.3155 50.3282V21.0649Z" fill="#98C1D9"/>
</svg>
