<svg width="81" height="76" viewBox="0 0 81 76" fill="none" xmlns="http://www.w3.org/2000/svg">
<path d="M40.1641 75.3077C38.9239 75.3061 37.7129 74.9255 36.6886 74.2153C21.5139 63.7527 14.9432 56.5788 11.3189 52.0937C3.59548 42.5332 -0.102123 32.7177 0.00214406 22.0883C0.123788 9.90767 9.74528 0 21.4502 0C29.9614 0 35.8563 4.86951 39.2894 8.92514C39.3982 9.05232 39.5325 9.1543 39.6834 9.22418C39.8343 9.29407 39.9983 9.33024 40.1641 9.33024C40.33 9.33024 40.4939 9.29407 40.6448 9.22418C40.7957 9.1543 40.93 9.05232 41.0388 8.92514C44.4719 4.86558 50.3668 0 58.878 0C70.5829 0 80.2044 9.90767 80.3261 22.0903C80.4303 32.7216 76.7289 42.5371 69.0093 52.0957C65.385 56.5808 58.8143 63.7546 43.6397 74.2173C42.6151 74.9267 41.4041 75.3067 40.1641 75.3077Z" fill="#3D5A80"/>
</svg>
