<svg width="134" height="134" viewBox="0 0 134 134" fill="none" xmlns="http://www.w3.org/2000/svg">
<path d="M82.1383 98.0585L85.684 101.595L89.2296 98.0585L98.5425 88.7687L102.106 85.2142L98.5425 81.6598L83.48 66.6346L98.5425 51.6094L102.106 48.0549L98.5425 44.5005L89.2296 35.2107L85.684 31.6738L82.1383 35.2107L67.0583 50.2534L51.9783 35.2107L48.4327 31.6738L44.887 35.2107L35.5742 44.5005L32.011 48.0549L35.5742 51.6094L50.6366 66.6346L35.5742 81.6598L32.011 85.2142L35.5742 88.7687L44.887 98.0585L48.4327 101.595L51.9783 98.0585L67.0583 83.0157L82.1383 98.0585ZM23.3746 23.0763C47.3579 -0.847699 86.7588 -0.847699 110.742 23.0763C134.653 46.9287 134.119 86.2102 110.077 110.193C86.0936 134.117 47.3579 134.117 23.3746 110.193C-0.601759 86.2757 -0.601759 46.9935 23.3746 23.0763Z" fill="#7D8E8A" stroke="#7D8E8A" stroke-width="10.041"/>
</svg>
