<svg width="86" height="87" viewBox="0 0 86 87" fill="none" xmlns="http://www.w3.org/2000/svg">
<path d="M25.9955 86.0181C23.6369 86.0181 21.6171 85.1775 19.9361 83.4965C18.255 81.8155 17.4159 79.7971 17.4188 77.4414C17.4188 75.0828 18.2593 73.0629 19.9404 71.3819C21.6214 69.7009 23.6398 68.8618 25.9955 68.8646C28.3541 68.8646 30.3739 69.7052 32.055 71.3862C33.736 73.0672 34.5751 75.0856 34.5722 77.4414C34.5722 79.8 33.7317 81.8198 32.0507 83.5008C30.3696 85.1818 28.3512 86.0209 25.9955 86.0181ZM68.8791 86.0181C66.5205 86.0181 64.5006 85.1775 62.8196 83.4965C61.1386 81.8155 60.2995 79.7971 60.3023 77.4414C60.3023 75.0828 61.1429 73.0629 62.8239 71.3819C64.5049 69.7009 66.5233 68.8618 68.8791 68.8646C71.2377 68.8646 73.2575 69.7052 74.9385 71.3862C76.6195 73.0672 77.4586 75.0856 77.4558 77.4414C77.4558 79.8 76.6153 81.8198 74.9342 83.5008C73.2532 85.1818 71.2348 86.0209 68.8791 86.0181ZM18.2765 8.82769H81.5297C83.1736 8.82769 84.4243 9.56099 85.282 11.0276C86.1397 12.4942 86.1754 13.9766 85.3892 15.4746L70.1656 42.9201C69.3794 44.3496 68.3244 45.4574 67.0008 46.2436C65.6771 47.0298 64.2305 47.4229 62.6609 47.4229H30.7127L25.9955 55.9996H77.4558V64.5763H25.9955C22.7792 64.5763 20.3492 63.164 18.7053 60.3394C17.0614 57.5148 16.99 54.7102 18.4909 51.9256L24.2802 41.4192L8.84209 8.82769H0.265381V0.250977H14.2025L18.2765 8.82769Z" fill="white"/>
</svg>
