<svg width="134" height="134" viewBox="0 0 134 134" fill="none" xmlns="http://www.w3.org/2000/svg">
<path d="M54.849 78.2788L54.8492 78.2897C54.879 80.1528 55.6402 81.9295 56.9683 83.2364C57.6526 83.9098 58.4592 84.4306 59.3353 84.7773C55.2097 86.8227 52.3457 90.8786 52.3457 96.1453C52.3457 103.727 58.5116 108.874 65.7563 108.874C73.1576 108.874 79.3332 103.774 79.3332 96.1453C79.3332 92.5118 77.919 89.1916 75.3256 86.8147C74.2862 85.8621 73.1076 85.1053 71.8335 84.5423C72.5225 84.2023 73.158 83.7496 73.7115 83.1961C75.0429 81.8647 75.7909 80.059 75.7909 78.1761V77.303C75.7909 75.0771 76.178 74.3149 76.6745 73.659C77.4941 72.5762 78.9209 71.4359 82.2027 68.9467L82.2072 68.9432C87.3334 65.046 94.5334 59.4428 94.5334 47.8505C94.5334 39.9641 91.1179 33.8302 85.774 29.8098C80.5917 25.9109 73.8911 24.1956 67.2863 24.1956C61.3364 24.1956 54.7181 25.5666 49.333 29.3093C43.7481 33.1909 39.8871 39.3681 39.4067 47.9439L39.4048 47.978L39.4034 48.0121C39.363 48.9647 39.5179 49.9155 39.8586 50.8061C40.1993 51.6966 40.7185 52.5081 41.3844 53.1905C42.0503 53.873 42.8487 54.412 43.7306 54.7745C44.5947 55.1296 45.5209 55.3079 46.4547 55.2991H53.2834C57.3556 55.2991 60.0406 52.0723 60.4703 48.874C60.7148 47.1032 61.3877 45.9137 62.2123 45.172C63.0107 44.4538 64.3538 43.7908 66.6543 43.7908C68.756 43.7908 70.2874 44.3268 71.1735 45.0162C71.8787 45.565 72.56 46.4826 72.56 48.4825C72.56 49.9407 72.1974 50.7644 71.5008 51.6295C70.5825 52.77 69.1397 53.9157 66.572 55.8452C60.581 60.2043 54.4358 66.316 54.825 76.5387L54.849 78.2788ZM128.746 66.6346C128.746 82.9457 122.266 98.5888 110.733 110.123C99.1989 121.656 83.5559 128.136 67.2447 128.136C50.9335 128.136 35.2905 121.656 23.7567 110.123C12.223 98.5888 5.74341 82.9457 5.74341 66.6346C5.74341 50.3234 12.223 34.6803 23.7567 23.1466C35.2905 11.6129 50.9335 5.13331 67.2447 5.13331C83.5559 5.13331 99.1989 11.6129 110.733 23.1466C122.266 34.6803 128.746 50.3234 128.746 66.6346Z" fill="#3D5A80" stroke="#3D5A80" stroke-width="10.041"/>
</svg>
