<svg width="86" height="86" viewBox="0 0 86 86" fill="none" xmlns="http://www.w3.org/2000/svg">
<path d="M5.2207 71.0174C5.2207 66.0241 7.20425 61.2354 10.735 57.7047C14.2657 54.174 19.0544 52.1904 24.0476 52.1904H61.7015C66.6947 52.1904 71.4834 54.174 75.0141 57.7047C78.5448 61.2354 80.5284 66.0241 80.5284 71.0174C80.5284 73.514 79.5366 75.9083 77.7713 77.6737C76.0059 79.439 73.6115 80.4308 71.1149 80.4308H14.6342C12.1376 80.4308 9.74321 79.439 7.97784 77.6737C6.21248 75.9083 5.2207 73.514 5.2207 71.0174Z" fill="#98C1D9" stroke="#98C1D9" stroke-width="9.72724" stroke-linejoin="round"/>
<path d="M42.8743 33.3634C50.6727 33.3634 56.9945 27.0416 56.9945 19.2432C56.9945 11.4449 50.6727 5.12305 42.8743 5.12305C35.076 5.12305 28.7542 11.4449 28.7542 19.2432C28.7542 27.0416 35.076 33.3634 42.8743 33.3634Z" fill="#98C1D9" stroke="#98C1D9" stroke-width="9.72724"/>
</svg>
